<svg xmlns="http://www.w3.org/2000/svg" xmlns:xlink="http://www.w3.org/1999/xlink" width="40" zoomAndPan="magnify" viewBox="0 0 30 30.000001" height="40" preserveAspectRatio="xMidYMid meet" version="1.0"><defs><clipPath id="04e1077f3f"><path d="M 0.484375 12 L 29.515625 12 L 29.515625 17 L 0.484375 17 Z M 0.484375 12 " clip-rule="nonzero"/></clipPath><clipPath id="f1fe507ae9"><path d="M 0.484375 20 L 29.515625 20 L 29.515625 24.550781 L 0.484375 24.550781 Z M 0.484375 20 " clip-rule="nonzero"/></clipPath><clipPath id="51b1dca13a"><path d="M 0.484375 4.226562 L 29.515625 4.226562 L 29.515625 8 L 0.484375 8 Z M 0.484375 4.226562 " clip-rule="nonzero"/></clipPath></defs><g clip-path="url(#04e1077f3f)"><path fill="#000000" d="M 27.703125 12.597656 L 2.296875 12.597656 C 1.296875 12.597656 0.484375 13.398438 0.484375 14.390625 C 0.484375 15.378906 1.296875 16.179688 2.296875 16.179688 L 27.703125 16.179688 C 28.703125 16.179688 29.515625 15.378906 29.515625 14.390625 C 29.515625 13.398438 28.703125 12.597656 27.703125 12.597656 Z M 27.703125 12.597656 " fill-opacity="1" fill-rule="nonzero"/></g><g clip-path="url(#f1fe507ae9)"><path fill="#000000" d="M 27.703125 20.960938 L 2.296875 20.960938 C 1.296875 20.960938 0.484375 21.765625 0.484375 22.753906 C 0.484375 23.746094 1.296875 24.546875 2.296875 24.546875 L 27.703125 24.546875 C 28.703125 24.546875 29.515625 23.746094 29.515625 22.753906 C 29.515625 21.765625 28.703125 20.960938 27.703125 20.960938 Z M 27.703125 20.960938 " fill-opacity="1" fill-rule="nonzero"/></g><g clip-path="url(#51b1dca13a)"><path fill="#000000" d="M 2.296875 7.816406 L 27.703125 7.816406 C 28.703125 7.816406 29.515625 7.015625 29.515625 6.023438 C 29.515625 5.035156 28.703125 4.230469 27.703125 4.230469 L 2.296875 4.230469 C 1.296875 4.230469 0.484375 5.035156 0.484375 6.023438 C 0.484375 7.015625 1.296875 7.816406 2.296875 7.816406 Z M 2.296875 7.816406 " fill-opacity="1" fill-rule="nonzero"/></g></svg>